Coordinates
version=1
nRows=18
nColumns=63
inDegrees=yes

Units are S.I. units (second, meters, Newtons, ...)
If the header above contains a line with 'inDegrees', this indicates whether rotational values are in degrees (yes) or radians (no).

endheader
time	pelvis_tilt	pelvis_list	pelvis_rotation	pelvis_tx	pelvis_ty	pelvis_tz	hip_flexion_r	hip_adduction_r	hip_rotation_r	knee_angle_r	knee_angle_r_beta	ankle_angle_r	subtalar_angle_r	mtp_angle_r	hip_flexion_l	hip_adduction_l	hip_rotation_l	knee_angle_l	knee_angle_l_beta	ankle_angle_l	subtalar_angle_l	mtp_angle_l	L5_S1_Flex_Ext	L5_S1_Lat_Bending	L5_S1_axial_rotation	L4_L5_Flex_Ext	L4_L5_Lat_Bending	L4_L5_axial_rotation	L3_L4_Flex_Ext	L3_L4_Lat_Bending	L3_L4_axial_rotation	L2_L3_Flex_Ext	L2_L3_Lat_Bending	L2_L3_axial_rotation	L1_L2_Flex_Ext	L1_L2_Lat_Bending	L1_L2_axial_rotation	L1_T12_Flex_Ext	L1_T12_Lat_Bending	L1_T12_axial_rotation	Abs_r3	Abs_r2	Abs_r1	Abs_t1	Abs_t2	neck_flexion	neck_bending	neck_rotation	arm_flex_r	arm_add_r	arm_rot_r	elbow_flex_r	pro_sup_r	wrist_flex_r	wrist_dev_r	arm_flex_l	arm_add_l	arm_rot_l	elbow_flex_l	pro_sup_l	wrist_flex_l	wrist_dev_l
1.383333	-0.795237	-3.536711	84.764235	0.316941	0.833956	0.670333	9.030195	-1.853337	-6.579319	9.577769	0.167164	34.278778	10.602657	0.000000	9.395000	-0.240461	-5.291234	6.421837	0.112082	36.779508	9.015136	0.000000	0.151713	-0.027282	-0.510092	0.281746	-0.036285	-0.541972	0.249249	-0.066334	-0.541972	0.173393	-0.066334	-0.446330	0.140880	-0.055634	-0.414449	0.086689	-0.042260	-0.382569	1.083669	-0.308622	-2.836976	0.000000	0.000000	20.905506	-1.299325	-0.591798	-31.493766	-78.272897	34.608020	76.282430	54.594936	12.451649	-11.726262	-70.440596	-80.304974	-8.662781	93.588727	87.004715	-9.430718	-20.250286
1.400000	-0.994726	-3.481703	84.531458	0.317306	0.834117	0.670689	9.064135	-2.078135	-6.974667	9.728859	0.169801	34.331006	11.276188	0.000000	9.338910	-0.043485	-4.992453	6.278515	0.109581	36.707187	8.642014	0.000000	0.148035	-0.049313	-0.491668	0.274916	-0.065586	-0.522398	0.243207	-0.119899	-0.522398	0.169189	-0.119899	-0.430210	0.137465	-0.100559	-0.399480	0.084587	-0.076386	-0.368751	1.057399	-0.557837	-2.734512	0.000000	0.000000	20.862171	-0.996397	-0.037429	-28.876520	-78.219649	37.765369	76.077825	52.825289	11.772276	-11.720336	-68.080000	-80.188949	-5.928554	93.040236	87.367799	-10.894915	-20.502406
1.416667	-1.180417	-3.401705	84.370391	0.317568	0.834327	0.671026	9.051898	-2.303696	-7.453351	9.874304	0.172339	34.353323	11.940131	0.000000	9.257860	0.157023	-4.585546	6.139432	0.107153	36.615250	8.196381	0.000000	0.142618	-0.070002	-0.504198	0.264856	-0.093102	-0.535711	0.234307	-0.170202	-0.535711	0.162998	-0.170202	-0.441174	0.132435	-0.142747	-0.409661	0.081492	-0.108433	-0.378149	1.018708	-0.791873	-2.804200	0.000000	0.000000	20.735987	-0.612339	0.672081	-25.295376	-78.068368	42.109377	75.757129	51.382416	10.871377	-11.565432	-65.186412	-79.900770	-2.681539	92.318378	87.692630	-12.274561	-20.797550
1.433333	-1.343000	-3.302022	84.261750	0.317752	0.834566	0.671339	9.001483	-2.510057	-7.894841	10.009006	0.174690	34.330380	12.474167	0.000000	9.170034	0.328604	-4.401720	6.049295	0.105580	36.570795	8.055071	0.000000	0.137293	-0.088360	-0.509769	0.254968	-0.117518	-0.541629	0.225559	-0.214838	-0.541629	0.156913	-0.214838	-0.446048	0.127491	-0.180183	-0.414187	0.078449	-0.136869	-0.382327	0.980673	-0.999542	-2.835182	0.000000	0.000000	20.511131	-0.293126	1.248865	-21.782002	-77.675061	46.538226	75.240029	50.864911	9.721761	-11.304124	-61.231036	-79.565092	1.631191	91.439830	87.983713	-13.575826	-20.954309
1.450000	-1.461931	-3.171442	84.209746	0.317819	0.834836	0.671647	8.900209	-2.679883	-8.330784	10.127864	0.176765	34.272654	12.920968	0.000000	9.058221	0.461452	-4.297774	5.998028	0.104685	36.543438	8.024345	0.000000	0.129801	-0.100038	-0.519689	0.241053	-0.133050	-0.552170	0.213250	-0.243232	-0.552170	0.148349	-0.243232	-0.454728	0.120533	-0.203997	-0.422247	0.074168	-0.154958	-0.389767	0.927155	-1.131646	-2.890355	0.000000	0.000000	20.197210	-0.022254	1.836758	-18.020134	-77.036384	51.483022	74.429831	51.272911	8.435426	-11.008706	-56.362544	-79.072946	6.837895	90.382276	88.271070	-14.837782	-20.917745
1.466667	-1.529735	-3.024562	84.236620	0.317749	0.835088	0.671917	8.756866	-2.801334	-8.715214	10.219441	0.178363	34.180309	13.203913	0.000000	8.936220	0.548561	-4.262743	5.985406	0.104465	36.534859	8.118328	0.000000	0.122834	-0.103330	-0.533479	0.228116	-0.137429	-0.566822	0.201805	-0.251236	-0.566822	0.140387	-0.251236	-0.466794	0.114064	-0.210710	-0.433452	0.070188	-0.160058	-0.400109	0.877394	-1.168887	-2.967051	0.000000	0.000000	19.834260	0.194761	2.427101	-14.249176	-76.090189	56.658439	73.235307	52.419476	7.194433	-10.624808	-50.680576	-78.352172	12.747737	89.113720	88.508087	-15.689842	-20.530423
1.483333	-1.534838	-2.865300	84.339229	0.317525	0.835286	0.672142	8.574681	-2.859778	-9.017505	10.275185	0.179336	34.067244	13.290655	0.000000	8.807752	0.578337	-4.302372	6.014431	0.104972	36.554667	8.326183	0.000000	0.115493	-0.095418	-0.548647	0.214482	-0.126906	-0.582938	0.189744	-0.232000	-0.582938	0.131997	-0.232000	-0.480066	0.107247	-0.194577	-0.445776	0.065993	-0.147803	-0.411485	0.824956	-1.079391	-3.051410	0.000000	0.000000	19.464323	0.343014	3.071052	-10.659544	-74.798445	61.783644	71.570450	54.108941	6.076382	-10.247585	-44.371896	-77.313009	19.117886	87.554937	88.685352	-16.018817	-19.791774
1.500000	-1.480053	-2.693184	84.445765	0.317249	0.835396	0.672312	8.371615	-2.856307	-9.296122	10.318502	0.180092	33.987607	13.361628	0.000000	8.663991	0.539819	-4.492604	6.088553	0.106265	36.601806	8.633660	0.000000	0.106345	-0.076544	-0.549808	0.197493	-0.101803	-0.584171	0.174714	-0.186109	-0.584171	0.121542	-0.186109	-0.481082	0.098752	-0.156088	-0.446719	0.060766	-0.118566	-0.412356	0.759612	-0.865880	-3.057865	0.000000	0.000000	19.133360	0.374462	3.708441	-7.410051	-73.135917	66.600880	69.432062	56.153940	4.883303	-9.976741	-37.711828	-75.905541	25.675176	85.602770	88.899458	-16.050913	-18.816267
1.516667	-1.348204	-2.536077	84.592831	0.316867	0.835326	0.672401	8.171676	-2.776932	-9.581105	10.346452	0.180580	33.963201	13.415904	0.000000	8.540504	0.417074	-4.808159	6.220438	0.108567	36.705073	9.065944	0.000000	0.097770	-0.044201	-0.549769	0.181568	-0.058787	-0.584129	0.160626	-0.107470	-0.584129	0.111741	-0.107470	-0.481048	0.090789	-0.090134	-0.446687	0.055866	-0.068467	-0.412327	0.698359	-0.500007	-3.057649	0.000000	0.000000	18.911693	0.329791	4.427377	-4.614962	-71.109217	70.767767	66.864835	58.332738	3.725753	-9.634270	-30.993123	-74.031339	32.023626	83.171838	89.116902	-15.546663	-17.613761
1.533333	-1.149340	-2.406172	84.747752	0.316437	0.835004	0.672400	7.998363	-2.619792	-9.769133	10.368318	0.180961	34.013318	13.373749	0.000000	8.443063	0.218485	-5.208015	6.397869	0.111664	36.871957	9.539742	0.000000	0.089988	-0.000623	-0.548409	0.167117	-0.000829	-0.582685	0.147842	-0.001515	-0.582685	0.102848	-0.001515	-0.479858	0.083563	-0.001271	-0.445583	0.051419	-0.000965	-0.411307	0.642778	-0.007049	-3.050088	0.000000	0.000000	18.854055	0.224675	5.203121	-2.299585	-68.739015	74.305938	63.914858	60.018383	2.510491	-9.257859	-24.474172	-71.665823	37.843224	80.230927	89.307797	-14.460646	-16.270931
1.550000	-0.885015	-2.318694	84.952699	0.315917	0.834377	0.672322	7.868167	-2.396928	-9.938470	10.392393	0.181381	34.156991	13.277341	0.000000	8.402267	-0.048931	-5.630707	6.630224	0.115719	37.123210	10.057868	0.000000	0.082832	0.053287	-0.561146	0.153827	0.070872	-0.596217	0.136085	0.129562	-0.596217	0.094669	0.129562	-0.491002	0.076918	0.108663	-0.455931	0.047330	0.082542	-0.420859	0.591661	0.602795	-3.120924	0.000000	0.000000	18.990069	0.121865	6.112347	-0.534637	-66.029209	76.864776	60.651975	61.408950	1.240840	-8.777599	-18.444749	-68.808337	42.754069	76.830733	89.357794	-12.825268	-14.779414
1.566667	-0.580234	-2.291780	85.195222	0.315350	0.833415	0.672196	7.817412	-2.130954	-10.082033	10.444045	0.182283	34.395943	13.127787	0.000000	8.447654	-0.366054	-6.095455	6.923166	0.120832	37.476726	10.660364	0.000000	0.078999	0.113763	-0.587203	0.146709	0.151304	-0.623903	0.129787	0.276602	-0.623903	0.090288	0.276602	-0.513803	0.073358	0.231985	-0.477102	0.045140	0.176218	-0.440402	0.564282	1.286905	-3.265847	0.000000	0.000000	19.297327	0.044620	7.176347	0.621302	-62.952642	77.898953	57.145561	63.312401	0.071022	-8.164279	-13.115138	-65.516784	46.656491	73.051089	89.221455	-11.021227	-13.159628
1.583333	-0.270968	-2.309932	85.447269	0.314785	0.832147	0.672066	7.847136	-1.857113	-10.166446	10.543257	0.184015	34.725737	12.924076	0.000000	8.557047	-0.689563	-6.514243	7.241827	0.126394	37.915118	11.226070	0.000000	0.076026	0.175143	-0.624458	0.141187	0.232941	-0.663487	0.124902	0.425844	-0.663487	0.086890	0.425844	-0.546401	0.070597	0.357152	-0.507372	0.043441	0.271297	-0.468344	0.543043	1.981257	-3.473048	0.000000	0.000000	19.760410	-0.012027	8.337561	1.217727	-59.560756	77.665578	53.440673	65.164151	-1.085528	-7.497199	-8.641489	-61.855463	49.375538	68.997739	88.827572	-9.088579	-11.468816
1.600000	0.029585	-2.380516	85.727878	0.314236	0.830576	0.672010	7.972523	-1.587486	-10.197353	10.699080	0.186734	35.123279	12.629772	0.000000	8.768289	-1.014077	-6.945251	7.627455	0.133124	38.456376	11.858989	0.000000	0.074063	0.234718	-0.672642	0.137543	0.312175	-0.714682	0.121678	0.570693	-0.714682	0.084647	0.570693	-0.588561	0.068775	0.478636	-0.546521	0.042320	0.363578	-0.504481	0.529025	2.655174	-3.741031	0.000000	0.000000	20.381348	-0.062971	9.548807	1.122000	-55.835377	75.618221	49.679447	67.517161	-2.144074	-6.743636	-5.205164	-57.882640	50.712440	64.795508	88.327924	-7.193209	-9.740058
1.616667	0.318800	-2.471871	86.000301	0.313639	0.828813	0.672066	8.164149	-1.331148	-10.195409	10.911231	0.190437	35.565531	12.313100	0.000000	9.022004	-1.319979	-7.299805	8.011977	0.139835	39.045123	12.430723	0.000000	0.070703	0.293868	-0.734121	0.131303	0.390844	-0.780003	0.116158	0.714511	-0.780003	0.080807	0.714511	-0.642356	0.065655	0.599256	-0.596473	0.040400	0.455201	-0.550590	0.505027	3.324293	-4.082959	0.000000	0.000000	21.071520	-0.109417	10.859190	0.843158	-51.972641	72.577151	45.966808	69.638622	-3.149311	-5.922219	-2.460609	-53.674197	51.153334	60.525348	87.728715	-5.752493	-8.050701
1.633333	0.587766	-2.585725	86.248538	0.313046	0.826853	0.672317	8.439201	-1.099943	-10.202466	11.204353	0.195553	36.053414	12.023384	0.000000	9.340105	-1.610420	-7.617850	8.431980	0.147166	39.674818	12.955295	0.000000	0.065816	0.350096	-0.798585	0.122227	0.465628	-0.848496	0.108129	0.851224	-0.848496	0.075221	0.851224	-0.698761	0.061117	0.713916	-0.648850	0.037607	0.542299	-0.598938	0.470119	3.960359	-4.441488	0.000000	0.000000	21.821439	-0.144755	12.164215	0.379392	-48.008631	68.484494	42.462768	71.476314	-4.103230	-5.194175	-0.450147	-49.307199	50.627871	56.319376	87.095548	-4.658992	-6.410694
1.650000	0.835651	-2.724206	86.482610	0.312425	0.824712	0.672860	8.811250	-0.897797	-10.220756	11.596591	0.202399	36.575267	11.736573	0.000000	9.738365	-1.880248	-7.848409	8.904299	0.155409	40.313343	13.370058	0.000000	0.058792	0.403578	-0.868236	0.109182	0.536759	-0.922500	0.096589	0.981259	-0.922500	0.067193	0.981259	-0.759706	0.054594	0.822976	-0.705441	0.033594	0.625142	-0.651177	0.419943	4.565355	-4.828866	0.000000	0.000000	22.624248	-0.158243	13.485873	0.019482	-44.047189	63.720370	39.306898	72.964942	-4.982399	-4.611164	1.052150	-44.831504	49.414357	52.259188	86.555387	-4.078148	-4.887821
1.666667	1.049471	-2.895189	86.657351	0.311825	0.822395	0.673734	9.297324	-0.735682	-10.261167	12.097539	0.211142	37.127947	11.509458	0.000000	10.225983	-2.131524	-8.056384	9.447693	0.164893	40.955076	13.679243	0.000000	0.050495	0.452230	-0.927113	0.093775	0.601466	-0.985058	0.082959	1.099552	-0.985058	0.057711	1.099552	-0.811224	0.046890	0.922187	-0.753279	0.028853	0.700504	-0.695335	0.360683	5.115715	-5.156324	0.000000	0.000000	23.456820	-0.123179	14.768629	-0.170242	-40.140570	58.355064	36.596526	74.185997	-5.741393	-4.186210	2.116236	-40.276485	47.559669	48.392470	86.264011	-3.838860	-3.532345
